# xmcd
#
# Track frame offsets: 
#        150
#        14638
#        29804
#        50105
#        72397
#        88713
#        108099
#        121195
#        135768
#        153883
#        172692
#        184973
#        202864
#        218972
#        231028
#        245456
#        257950
#        272319
#        287983
#        301989
#
# Disc length: 4212 seconds
#
# Revision: 3
# Processed by: cddbd v1.5.2PL0 Copyright (c) Steve Scherf et al.
# Submitted via: ExactAudioCopy v0.99pb5
#
DISCID=18107214
DTITLE=Various Artist - New Country Collection [CD 1)
DYEAR=2007
DGENRE=Country
TTITLE0=Chely Wright - C'est la vie (You Never Can Tell)
TTITLE1=Brad Paisley - Me Neither
TTITLE2=Brooks and Dunn - Only in America
TTITLE3=LeAnn Rimes - How Do I Live
TTITLE4=The Kinleys - Somebody's Out There Watching
TTITLE5=Travis Tritt - Best of Intentions
TTITLE6=Aaron Tippin - Honky-Tonk Superman
TTITLE7=Genevieve Spalding - Gone to Kentucky
TTITLE8=Lonestar - Amazed
TTITLE9=Kathy Mattea - 455 Rocket
TTITLE10=Ken Mellons - Jukebox Junkie
TTITLE11=John Rich - I Pray for You
TTITLE12=Wade Hayes - The Day that She Left Tulsa (in a Chevy)
TTITLE13=Restless Heart - You Can Depend on Me
TTITLE14=Teresa - Brave New Girls (Cady's Song)
TTITLE15=Danni Leigh - Honey I Do (Single Version)
TTITLE16=Dolly Parton - Eagle When She Flies
TTITLE17=Trick Pony - It's a Heartache
TTITLE18=Joe Diffie - Down in a Ditch (Dance Mix)
TTITLE19=Cledus T. Judd - How Do You Milk a Cow
EXTD=
EXTT0=
EXTT1=
EXTT2=
EXTT3=
EXTT4=
EXTT5=
EXTT6=
EXTT7=
EXTT8=
EXTT9=
EXTT10=
EXTT11=
EXTT12=
EXTT13=
EXTT14=
EXTT15=
EXTT16=
EXTT17=
EXTT18=
EXTT19=
PLAYORDER=
